# xmcd
#
# Track frame offsets:
#	150
#	11782
#	26407
#	35960
#	46302
#	58427
#	69525
#	79600
#	93052
#	101122
#	115607
#	124920
#	136472
#	154840
#	170767
#	185555
#	200792
#	215807
#	230830
#	244375
#	261870
#	278645
#	291337
#	305765
#	318090
#
# Disc length: 4415 seconds
#
# Revision: 3
# Processed by: cddbd v1.4PL0 Copyright (c) Steve Scherf et al.
# Submitted via: MusicWizard 6.0.2
#
DISCID=87113d19
DTITLE=Frank Sinatra - The Complete Reprise Studio Recordings  Disc 4
DYEAR=1995
DGENRE=Vocal
TTITLE0=I'm Beginining To See The Light
TTITLE1=I Get A Kick Out Of You
TTITLE2=Ain't She Sweet ?
TTITLE3=I Love You
TTITLE4=They Can't Take That Away From Me
TTITLE5=Love Is Just Around The Corner
TTITLE6=At Long Last Love
TTITLE7=Serenade In Blue
TTITLE8=Goody Goody
TTITLE9=Don'Cha Go 'Way Mad
TTITLE10=Tangerine
TTITLE11=Pick Yourself Up
TTITLE12=If I Had You
TTITLE13=The Very Thought Of You
TTITLE14=I'll Follow My Secret Heart
TTITLE15=A Garden In The Rain
TTITLE16=London By Night
TTITLE17=The Gypsy
TTITLE18=Roses Of Picardy
TTITLE19=A Nightingale Sang In Berkeley Square
TTITLE20=We'll Meet Again
TTITLE21=Now Is The Hour
TTITLE22=We'll Gather Lilacs In The Spring
TTITLE23=The Look Of Love
TTITLE24=I Left My Heart In San Francisco
EXTD=YEAR: 1995
EXTT0=
EXTT1=
EXTT2=
EXTT3=
EXTT4=
EXTT5=
EXTT6=
EXTT7=
EXTT8=
EXTT9=
EXTT10=
EXTT11=
EXTT12=
EXTT13=
EXTT14=
EXTT15=
EXTT16=
EXTT17=
EXTT18=
EXTT19=
EXTT20=
EXTT21=
EXTT22=
EXTT23=
EXTT24=
PLAYORDER=
